<?xml version="1.0" encoding="UTF-8"?><svg xmlns="http://www.w3.org/2000/svg" xmlns:xlink="http://www.w3.org/1999/xlink" fill-opacity="1" color-rendering="auto" color-interpolation="auto" text-rendering="auto" stroke="black" stroke-linecap="square" width="670" stroke-miterlimit="10" shape-rendering="auto" stroke-opacity="1" fill="black" stroke-dasharray="none" font-weight="normal" stroke-width="1" height="322" font-family="'Dialog'" font-style="normal" stroke-linejoin="miter" font-size="12px" stroke-dashoffset="0" image-rendering="auto">
  <!--Generated by ySVG 2.5-->
  <defs id="genericDefs"/>
  <g>
    <defs id="defs1">
      <clipPath clipPathUnits="userSpaceOnUse" id="clipPath1">
        <path d="M0 0 L670 0 L670 322 L0 322 L0 0 Z"/>
      </clipPath>
      <clipPath clipPathUnits="userSpaceOnUse" id="clipPath2">
        <path d="M127 256 L797 256 L797 578 L127 578 L127 256 Z"/>
      </clipPath>
    </defs>
    <g fill="rgb(255,204,0)" text-rendering="geometricPrecision" shape-rendering="geometricPrecision" transform="matrix(1,0,0,1,-127,-256)" stroke="rgb(255,204,0)">
      <rect x="161" width="69" height="36" y="271.82" clip-path="url(#clipPath2)" stroke="none"/>
    </g>
    <g text-rendering="geometricPrecision" stroke-miterlimit="1.45" shape-rendering="geometricPrecision" transform="matrix(1,0,0,1,-127,-256)" stroke-linecap="butt">
      <rect fill="none" x="161" width="69" height="36" y="271.82" clip-path="url(#clipPath2)"/>
      <text x="163.6133" xml:space="preserve" y="293.9743" clip-path="url(#clipPath2)" font-family="sans-serif" stroke="none">EEG signal</text>
    </g>
    <g fill="rgb(255,204,0)" text-rendering="geometricPrecision" shape-rendering="geometricPrecision" transform="matrix(1,0,0,1,-127,-256)" stroke="rgb(255,204,0)">
      <rect x="142" width="107" height="36" y="342" clip-path="url(#clipPath2)" stroke="none"/>
    </g>
    <g text-rendering="geometricPrecision" stroke-miterlimit="1.45" shape-rendering="geometricPrecision" transform="matrix(1,0,0,1,-127,-256)" stroke-linecap="butt">
      <rect fill="none" x="142" width="107" height="36" y="342" clip-path="url(#clipPath2)"/>
      <text x="148.8975" xml:space="preserve" y="364.1543" clip-path="url(#clipPath2)" font-family="sans-serif" stroke="none">select channels</text>
    </g>
    <g fill="rgb(255,204,0)" text-rendering="geometricPrecision" shape-rendering="geometricPrecision" transform="matrix(1,0,0,1,-127,-256)" stroke="rgb(255,204,0)">
      <rect x="381.825" width="69" height="36" y="342" clip-path="url(#clipPath2)" stroke="none"/>
    </g>
    <g text-rendering="geometricPrecision" stroke-miterlimit="1.45" shape-rendering="geometricPrecision" transform="matrix(1,0,0,1,-127,-256)" stroke-linecap="butt">
      <rect fill="none" x="381.825" width="69" height="36" y="342" clip-path="url(#clipPath2)"/>
      <text x="392.7879" xml:space="preserve" y="364.1543" clip-path="url(#clipPath2)" font-family="sans-serif" stroke="none">wavelet</text>
    </g>
    <g fill="rgb(255,204,0)" text-rendering="geometricPrecision" shape-rendering="geometricPrecision" transform="matrix(1,0,0,1,-127,-256)" stroke="rgb(255,204,0)">
      <rect x="507.4475" width="58" height="36" y="271.82" clip-path="url(#clipPath2)" stroke="none"/>
    </g>
    <g text-rendering="geometricPrecision" stroke-miterlimit="1.45" shape-rendering="geometricPrecision" transform="matrix(1,0,0,1,-127,-256)" stroke-linecap="butt">
      <rect fill="none" x="507.4475" width="58" height="36" y="271.82" clip-path="url(#clipPath2)"/>
      <text x="518.6702" xml:space="preserve" y="293.9743" clip-path="url(#clipPath2)" font-family="sans-serif" stroke="none">peaks</text>
    </g>
    <g fill="rgb(255,204,0)" text-rendering="geometricPrecision" shape-rendering="geometricPrecision" transform="matrix(1,0,0,1,-127,-256)" stroke="rgb(255,204,0)">
      <rect x="615.67" width="58" height="36" y="271.82" clip-path="url(#clipPath2)" stroke="none"/>
    </g>
    <g text-rendering="geometricPrecision" stroke-miterlimit="1.45" shape-rendering="geometricPrecision" transform="matrix(1,0,0,1,-127,-256)" stroke-linecap="butt">
      <rect fill="none" x="615.67" width="58" height="36" y="271.82" clip-path="url(#clipPath2)"/>
      <text x="619.7501" xml:space="preserve" y="293.9743" clip-path="url(#clipPath2)" font-family="sans-serif" stroke="none">features</text>
    </g>
    <g fill="rgb(255,204,0)" text-rendering="geometricPrecision" shape-rendering="geometricPrecision" transform="matrix(1,0,0,1,-127,-256)" stroke="rgb(255,204,0)">
      <rect x="723.8925" width="58" height="36" y="271.82" clip-path="url(#clipPath2)" stroke="none"/>
    </g>
    <g text-rendering="geometricPrecision" stroke-miterlimit="1.45" shape-rendering="geometricPrecision" transform="matrix(1,0,0,1,-127,-256)" stroke-linecap="butt">
      <rect fill="none" x="723.8925" width="58" height="36" y="271.82" clip-path="url(#clipPath2)"/>
      <text x="730.2079" xml:space="preserve" y="293.9743" clip-path="url(#clipPath2)" font-family="sans-serif" stroke="none">dataset</text>
    </g>
    <g fill="rgb(255,204,0)" text-rendering="geometricPrecision" shape-rendering="geometricPrecision" transform="matrix(1,0,0,1,-127,-256)" stroke="rgb(255,204,0)">
      <rect x="495.7475" width="62.48" height="36" y="522" clip-path="url(#clipPath2)" stroke="none"/>
    </g>
    <g text-rendering="geometricPrecision" stroke-miterlimit="1.45" shape-rendering="geometricPrecision" transform="matrix(1,0,0,1,-127,-256)" stroke-linecap="butt">
      <rect fill="none" x="495.7475" width="62.48" height="36" y="522" clip-path="url(#clipPath2)"/>
      <text x="500.4885" xml:space="preserve" y="544.1543" clip-path="url(#clipPath2)" font-family="sans-serif" stroke="none">classifier</text>
    </g>
    <g fill="rgb(255,204,0)" text-rendering="geometricPrecision" shape-rendering="geometricPrecision" transform="matrix(1,0,0,1,-127,-256)" stroke="rgb(255,204,0)">
      <rect x="621.2275" width="120.88" height="36" y="522" clip-path="url(#clipPath2)" stroke="none"/>
    </g>
    <g text-rendering="geometricPrecision" stroke-miterlimit="1.45" shape-rendering="geometricPrecision" transform="matrix(1,0,0,1,-127,-256)" stroke-linecap="butt">
      <rect fill="none" x="621.2275" width="120.88" height="36" y="522" clip-path="url(#clipPath2)"/>
      <text x="626.188" xml:space="preserve" y="544.1543" clip-path="url(#clipPath2)" font-family="sans-serif" stroke="none">classification error</text>
    </g>
    <g fill="rgb(255,204,0)" text-rendering="geometricPrecision" shape-rendering="geometricPrecision" transform="matrix(1,0,0,1,-127,-256)" stroke="rgb(255,204,0)">
      <rect x="226.2475" width="54.5" height="36" y="522" clip-path="url(#clipPath2)" stroke="none"/>
    </g>
    <g text-rendering="geometricPrecision" stroke-miterlimit="1.45" shape-rendering="geometricPrecision" transform="matrix(1,0,0,1,-127,-256)" stroke-linecap="butt">
      <rect fill="none" x="226.2475" width="54.5" height="36" y="522" clip-path="url(#clipPath2)"/>
      <text x="230.8129" xml:space="preserve" y="544.1543" clip-path="url(#clipPath2)" font-family="sans-serif" stroke="none">dataset</text>
    </g>
    <g fill="rgb(255,102,0)" text-rendering="geometricPrecision" shape-rendering="geometricPrecision" transform="matrix(1,0,0,1,-127,-256)" stroke="rgb(255,102,0)">
      <rect x="343.7475" width="89" height="46" y="517" clip-path="url(#clipPath2)" stroke="none"/>
    </g>
    <g text-rendering="geometricPrecision" stroke-miterlimit="1.45" shape-rendering="geometricPrecision" transform="matrix(1,0,0,1,-127,-256)" stroke-linecap="butt">
      <rect fill="none" x="343.7475" width="89" height="46" y="517" clip-path="url(#clipPath2)"/>
      <text x="361.0161" xml:space="preserve" y="537.1699" clip-path="url(#clipPath2)" font-family="sans-serif" stroke="none">predictor</text>
      <text x="365.5483" xml:space="preserve" y="551.1387" clip-path="url(#clipPath2)" font-family="sans-serif" stroke="none">ranking</text>
      <rect fill="none" x="310.82" width="120.88" height="15.28" y="282.18" clip-path="url(#clipPath2)"/>
      <text x="315.5901" xml:space="preserve" y="293.9743" clip-path="url(#clipPath2)" font-family="sans-serif" stroke="none">Feature Extraction</text>
      <rect fill="none" x="433.6875" width="89" height="15.28" y="476.2" clip-path="url(#clipPath2)"/>
      <text x="438.4873" xml:space="preserve" y="487.9943" clip-path="url(#clipPath2)" font-family="sans-serif" stroke="none">Classification</text>
    </g>
    <g fill="rgb(255,204,0)" text-rendering="geometricPrecision" shape-rendering="geometricPrecision" transform="matrix(1,0,0,1,-127,-256)" stroke="rgb(255,204,0)">
      <rect x="495.7475" width="81.4" height="36" y="342" clip-path="url(#clipPath2)" stroke="none"/>
    </g>
    <g text-rendering="geometricPrecision" stroke-miterlimit="1.45" shape-rendering="geometricPrecision" transform="matrix(1,0,0,1,-127,-256)" stroke-linecap="butt">
      <rect fill="none" x="495.7475" width="81.4" height="36" y="342" clip-path="url(#clipPath2)"/>
      <text x="503.1575" xml:space="preserve" y="364.1543" clip-path="url(#clipPath2)" font-family="sans-serif" stroke="none">select time</text>
    </g>
    <g fill="rgb(255,102,0)" text-rendering="geometricPrecision" shape-rendering="geometricPrecision" transform="matrix(1,0,0,1,-127,-256)" stroke="rgb(255,102,0)">
      <rect x="293.9225" width="42.98" height="36" y="342" clip-path="url(#clipPath2)" stroke="none"/>
    </g>
    <g text-rendering="geometricPrecision" stroke-miterlimit="1.45" shape-rendering="geometricPrecision" transform="matrix(1,0,0,1,-127,-256)" stroke-linecap="butt">
      <rect fill="none" x="293.9225" width="42.98" height="36" y="342" clip-path="url(#clipPath2)"/>
      <text x="305.349" xml:space="preserve" y="364.1543" clip-path="url(#clipPath2)" font-family="sans-serif" stroke="none">ICA</text>
      <path fill="none" d="M195.5 307.82 L195.5 334" clip-path="url(#clipPath2)"/>
      <path d="M195.5 342 L200.5 330 L195.5 333 L190.5 330 Z" clip-path="url(#clipPath2)" stroke="none"/>
      <path fill="none" d="M565.4475 289.82 L607.6714 289.82" clip-path="url(#clipPath2)"/>
      <path d="M615.6714 289.82 L603.6714 284.82 L606.6714 289.82 L603.6714 294.82 Z" clip-path="url(#clipPath2)" stroke="none"/>
      <path fill="none" d="M673.67 289.82 L715.8925 289.82" clip-path="url(#clipPath2)"/>
      <path d="M723.8925 289.82 L711.8925 284.82 L714.8925 289.82 L711.8925 294.82 Z" clip-path="url(#clipPath2)" stroke="none"/>
      <path fill="none" d="M558.2275 540 L613.2275 540" clip-path="url(#clipPath2)"/>
      <path d="M621.2275 540 L609.2275 535 L612.2275 540 L609.2275 545 Z" clip-path="url(#clipPath2)" stroke="none"/>
      <path fill="none" d="M280.7475 540 L335.7475 540" clip-path="url(#clipPath2)"/>
      <path d="M343.7475 540 L331.7475 535 L334.7475 540 L331.7475 545 Z" clip-path="url(#clipPath2)" stroke="none"/>
      <path fill="none" d="M432.7475 540 L487.7475 540" clip-path="url(#clipPath2)"/>
      <path d="M495.7475 540 L483.7475 535 L486.7475 540 L483.7475 545 Z" clip-path="url(#clipPath2)" stroke="none"/>
      <path fill="none" d="M450.825 360 L487.7204 360" clip-path="url(#clipPath2)"/>
      <path d="M495.7204 360 L483.7204 355 L486.7204 360 L483.7204 365 Z" clip-path="url(#clipPath2)" stroke="none"/>
      <path fill="none" d="M536.4475 342 L536.4475 315.834" clip-path="url(#clipPath2)"/>
      <path d="M536.4475 307.834 L531.4475 319.834 L536.4475 316.834 L541.4475 319.834 Z" clip-path="url(#clipPath2)" stroke="none"/>
      <path fill="none" d="M249 360 L285.9225 360" clip-path="url(#clipPath2)"/>
      <path d="M293.9225 360 L281.9225 355 L284.9225 360 L281.9225 365 Z" clip-path="url(#clipPath2)" stroke="none"/>
      <path fill="none" d="M336.9025 360 L373.825 360" clip-path="url(#clipPath2)"/>
      <path d="M381.825 360 L369.825 355 L372.825 360 L369.825 365 Z" clip-path="url(#clipPath2)" stroke="none"/>
    </g>
  </g>
</svg>
